<svg width="28" height="40" viewBox="0 0 28 40" fill="none" xmlns="http://www.w3.org/2000/svg">
<path d="M13.6667 2.57495H7.83333C6.28624 2.57495 4.80251 3.18953 3.70854 4.28349C2.61458 5.37746 2 6.86119 2 8.40828C2 9.95538 2.61458 11.4391 3.70854 12.5331C4.80251 13.627 6.28624 14.2416 7.83333 14.2416M13.6667 2.57495V14.2416M13.6667 2.57495H19.5C20.266 2.57495 21.0246 2.72583 21.7323 3.01899C22.4401 3.31214 23.0831 3.74182 23.6248 4.28349C24.1665 4.82517 24.5961 5.46823 24.8893 6.17596C25.1824 6.8837 25.3333 7.64224 25.3333 8.40828C25.3333 9.17433 25.1824 9.93287 24.8893 10.6406C24.5961 11.3483 24.1665 11.9914 23.6248 12.5331C23.0831 13.0747 22.4401 13.5044 21.7323 13.7976C21.0246 14.0907 20.266 14.2416 19.5 14.2416M13.6667 14.2416H7.83333M13.6667 14.2416H19.5M13.6667 14.2416V25.9083M7.83333 14.2416C6.28624 14.2416 4.80251 14.8562 3.70854 15.9502C2.61458 17.0441 2 18.5279 2 20.075C2 21.622 2.61458 23.1058 3.70854 24.1997C4.80251 25.2937 6.28624 25.9083 7.83333 25.9083M19.5 14.2416C18.734 14.2416 17.9754 14.3925 17.2677 14.6857C16.5599 14.9788 15.9169 15.4085 15.3752 15.9502C14.8335 16.4918 14.4039 17.1349 14.1107 17.8426C13.8175 18.5504 13.6667 19.3089 13.6667 20.075C13.6667 20.841 13.8175 21.5995 14.1107 22.3073C14.4039 23.015 14.8335 23.6581 15.3752 24.1997C15.9169 24.7414 16.5599 25.1711 17.2677 25.4642C17.9754 25.7574 18.734 25.9083 19.5 25.9083C20.266 25.9083 21.0246 25.7574 21.7323 25.4642C22.4401 25.1711 23.0831 24.7414 23.6248 24.1997C24.1665 23.6581 24.5961 23.015 24.8893 22.3073C25.1824 21.5995 25.3333 20.841 25.3333 20.075C25.3333 19.3089 25.1824 18.5504 24.8893 17.8426C24.5961 17.1349 24.1665 16.4918 23.6248 15.9502C23.0831 15.4085 22.4401 14.9788 21.7323 14.6857C21.0246 14.3925 20.266 14.2416 19.5 14.2416ZM7.83333 25.9083C6.28624 25.9083 4.80251 26.5229 3.70854 27.6168C2.61458 28.7108 2 30.1945 2 31.7416C2 33.2887 2.61458 34.7724 3.70854 35.8664C4.80251 36.9604 6.28624 37.575 7.83333 37.575C9.38043 37.575 10.8642 36.9604 11.9581 35.8664C13.0521 34.7724 13.6667 33.2887 13.6667 31.7416V25.9083M7.83333 25.9083H13.6667" stroke="#FF2B85" stroke-width="3.5" stroke-linecap="round" stroke-linejoin="round"/>
</svg>
