<svg width="25" height="25" viewBox="0 0 25 25" fill="none" xmlns="http://www.w3.org/2000/svg">
<g clip-path="url(#clip0_964313_2347)">
<path d="M19.98 0.574951H5.97998C3.21898 0.574951 0.97998 2.81395 0.97998 5.57495V19.575C0.97998 22.336 3.21898 24.575 5.97998 24.575H19.98C22.742 24.575 24.98 22.336 24.98 19.575V5.57495C24.98 2.81395 22.742 0.574951 19.98 0.574951ZM8.97998 19.575H5.97998V8.57495H8.97998V19.575ZM7.47998 7.30695C6.51398 7.30695 5.72998 6.51695 5.72998 5.54295C5.72998 4.56895 6.51398 3.77895 7.47998 3.77895C8.44598 3.77895 9.22998 4.56895 9.22998 5.54295C9.22998 6.51695 8.44698 7.30695 7.47998 7.30695ZM20.98 19.575H17.98V13.971C17.98 10.603 13.98 10.858 13.98 13.971V19.575H10.98V8.57495H13.98V10.34C15.376 7.75395 20.98 7.56295 20.98 12.816V19.575Z" fill="#FF2B85"/>
</g>
<defs>
<clipPath id="clip0_964313_2347">
<rect width="24" height="24" fill="white" transform="translate(0.97998 0.574951)"/>
</clipPath>
</defs>
</svg>
