<svg width="25" height="25" viewBox="0 0 25 25" fill="none" xmlns="http://www.w3.org/2000/svg">
<g clip-path="url(#clip0_964313_2343)">
<path d="M12.98 2.73795C16.184 2.73795 16.564 2.74995 17.83 2.80795C21.082 2.95595 22.601 4.49895 22.749 7.72695C22.807 8.99195 22.818 9.37195 22.818 12.576C22.818 15.781 22.806 16.16 22.749 17.425C22.6 20.65 21.085 22.1959 17.83 22.344C16.564 22.402 16.186 22.414 12.98 22.414C9.77598 22.414 9.39598 22.402 8.13098 22.344C4.87098 22.195 3.35998 20.645 3.21198 17.424C3.15398 16.159 3.14198 15.78 3.14198 12.575C3.14198 9.37095 3.15498 8.99195 3.21198 7.72595C3.36098 4.49895 4.87598 2.95495 8.13098 2.80695C9.39698 2.74995 9.77598 2.73795 12.98 2.73795ZM12.98 0.574951C9.72098 0.574951 9.31298 0.588951 8.03298 0.646951C3.67498 0.846951 1.25298 3.26495 1.05298 7.62695C0.99398 8.90795 0.97998 9.31595 0.97998 12.575C0.97998 15.834 0.99398 16.243 1.05198 17.523C1.25198 21.881 3.66998 24.3029 8.03198 24.503C9.31298 24.561 9.72098 24.575 12.98 24.575C16.239 24.575 16.648 24.561 17.928 24.503C22.282 24.3029 24.71 21.885 24.907 17.523C24.966 16.243 24.98 15.834 24.98 12.575C24.98 9.31595 24.966 8.90795 24.908 7.62795C24.712 3.27395 22.291 0.847951 17.929 0.647951C16.648 0.588951 16.239 0.574951 12.98 0.574951ZM12.98 6.41295C9.57698 6.41295 6.81798 9.17195 6.81798 12.575C6.81798 15.978 9.57698 18.738 12.98 18.738C16.383 18.738 19.142 15.979 19.142 12.575C19.142 9.17195 16.383 6.41295 12.98 6.41295ZM12.98 16.575C10.771 16.575 8.97998 14.785 8.97998 12.575C8.97998 10.366 10.771 8.57495 12.98 8.57495C15.189 8.57495 16.98 10.366 16.98 12.575C16.98 14.785 15.189 16.575 12.98 16.575ZM19.386 4.72995C18.59 4.72995 17.945 5.37495 17.945 6.16995C17.945 6.96495 18.59 7.60995 19.386 7.60995C20.181 7.60995 20.825 6.96495 20.825 6.16995C20.825 5.37495 20.181 4.72995 19.386 4.72995Z" fill="#FF2B85"/>
</g>
<defs>
<clipPath id="clip0_964313_2343">
<rect width="24" height="24" fill="white" transform="translate(0.97998 0.574951)"/>
</clipPath>
</defs>
</svg>
